<?xml version="1.0" standalone="no"?>
<!DOCTYPE svg PUBLIC "-//W3C//DTD SVG 20010904//EN"
 "http://www.w3.org/TR/2001/REC-SVG-20010904/DTD/svg10.dtd">
<svg version="1.0" xmlns="http://www.w3.org/2000/svg"
 width="1920.000000pt" height="1920.000000pt" viewBox="0 0 1920.000000 1920.000000"
 preserveAspectRatio="xMidYMid meet">

<g transform="translate(0.000000,1920.000000) scale(0.100000,-0.100000)"
fill="#000000" stroke="none">
<path d="M11597 9445 c-85 -32 -163 -108 -216 -213 -62 -122 -292 -868 -273
-886 2 -3 34 33 70 79 l66 84 70 15 c114 24 144 27 150 17 3 -5 -1 -31 -9 -57
-8 -27 -15 -60 -15 -73 0 -22 1 -23 24 -8 29 20 36 14 37 -32 0 -20 6 -63 13
-96 l13 -60 7 120 c4 66 14 164 22 217 20 141 21 138 -24 138 -28 0 -45 7 -61
24 -28 29 -59 135 -68 229 -5 56 -3 67 9 67 9 0 19 -7 22 -16 5 -13 9 -14 21
-4 19 16 19 47 0 57 -9 5 -12 17 -8 31 4 18 12 22 45 22 47 0 48 20 1 35 -29
10 -30 12 -19 37 15 36 76 102 85 91 4 -4 15 -35 25 -67 17 -55 17 -61 2 -71
-23 -17 -20 -25 14 -37 19 -6 43 -30 66 -64 34 -51 114 -128 123 -118 3 2 -7
17 -20 32 -32 34 -79 99 -79 107 0 3 15 -5 33 -19 46 -35 109 -56 178 -59 33
-1 59 -6 59 -10 0 -5 -18 -16 -40 -25 -32 -14 -40 -22 -40 -43 0 -14 -11 -47
-25 -73 -29 -54 -31 -86 -10 -146 17 -47 15 -57 -25 -145 -35 -77 -101 -163
-184 -243 -36 -35 -66 -65 -66 -67 0 -5 72 36 80 45 3 3 25 20 50 39 25 19 68
63 95 98 27 34 52 63 55 63 3 0 14 -29 25 -65 10 -37 21 -68 25 -70 10 -6 57
94 71 150 7 28 16 53 19 57 8 10 161 -8 224 -26 55 -16 46 -8 214 -215 29 -36
58 -68 64 -70 8 -2 9 25 6 90 -9 153 -28 189 -178 344 -156 161 -183 210 -235
431 -42 174 -72 235 -145 293 -70 56 -144 81 -233 80 -40 0 -89 -7 -110 -14z
m363 -355 c11 -11 20 -23 21 -27 0 -5 2 -18 5 -30 8 -44 -16 -23 -53 46 -7 13
-13 25 -13 27 0 11 22 2 40 -16z"/>
<path d="M11601 9026 c-16 -19 -10 -51 9 -51 17 0 26 43 12 57 -5 5 -14 3 -21
-6z"/>
<path d="M3970 8478 c0 -50 -32 -93 -82 -112 -23 -9 -100 -22 -169 -30 -84
-10 -140 -21 -166 -35 -51 -25 -120 -102 -128 -143 -9 -38 -22 -22 -31 40 -3
23 -10 44 -14 47 -13 8 -19 -103 -10 -163 5 -31 8 -57 6 -59 -2 -2 -30 -10
-62 -19 -76 -19 -91 -34 -36 -34 45 0 49 -5 27 -34 -56 -74 35 -259 213 -435
l74 -74 77 6 c101 6 157 24 197 63 44 41 44 70 -1 218 -37 122 -41 152 -25
176 9 13 15 10 39 -18 16 -18 32 -46 37 -62 9 -28 10 -29 31 -12 17 12 26 37
37 94 19 98 38 134 80 152 46 19 76 84 83 180 9 123 -26 214 -104 264 -49 33
-73 29 -73 -10z"/>
<path d="M12127 7938 c-3 -59 -15 -135 -27 -176 -12 -41 -19 -76 -16 -79 16
-16 226 143 226 170 0 7 -36 48 -80 92 -44 43 -80 83 -80 87 0 4 -4 8 -9 8 -4
0 -11 -46 -14 -102z"/>
<path d="M10680 7851 c-19 -10 -35 -22 -35 -27 0 -5 24 -62 54 -127 l55 -117
61 0 c34 0 64 3 68 6 3 4 -26 69 -64 145 -49 96 -76 139 -87 139 -10 0 -33 -8
-52 -19z"/>
<path d="M12545 7641 c-11 -5 -23 -7 -27 -4 -10 5 -35 -37 -43 -73 l-6 -31 50
10 c70 13 129 2 196 -38 32 -19 58 -35 59 -35 1 0 13 20 26 45 19 34 22 49 14
62 -25 39 -219 86 -269 64z"/>
<path d="M11236 7263 c-92 -759 -124 -1176 -128 -1693 l-3 -275 70 -18 c213
-53 496 -59 830 -17 175 21 324 46 332 54 3 3 -8 74 -25 158 -38 185 -64 342
-92 548 -11 85 -22 167 -25 183 -2 15 3 75 12 135 17 114 24 488 10 553 -6 29
-14 37 -44 48 -20 8 -58 34 -84 58 -45 42 -50 45 -89 38 -58 -10 -90 13 -90
63 0 90 67 116 198 77 16 -6 22 -3 22 8 0 22 -92 156 -132 193 l-33 30 -160
-8 c-162 -9 -493 -5 -530 7 -20 6 -22 -1 -39 -142z"/>
<path d="M3590 7329 c-42 -4 -90 -14 -108 -23 -31 -16 -37 -28 -45 -94 l-4
-33 76 8 c124 13 371 2 504 -22 15 -3 27 -2 26 2 0 5 -17 35 -37 68 -37 59
-37 60 -109 76 -84 20 -198 26 -303 18z"/>
<path d="M4120 7104 c-67 -57 -100 -182 -82 -307 24 -159 89 -299 177 -382 23
-22 75 -85 116 -140 98 -134 103 -139 185 -222 76 -77 187 -154 256 -179 137
-49 184 -53 567 -55 l366 -1 12 36 c14 41 9 82 -15 114 -13 16 -38 25 -102 37
-132 25 -309 81 -464 147 -78 33 -179 76 -226 95 -80 34 -88 40 -137 107 -28
39 -73 100 -100 136 -26 36 -61 86 -78 112 -50 78 -235 340 -279 393 -56 69
-128 135 -148 135 -9 0 -31 -12 -48 -26z"/>
<path d="M4767 5309 c-43 -5 -106 -15 -139 -22 l-62 -12 -24 -64 c-41 -105
-144 -195 -278 -240 -135 -45 -523 -96 -689 -89 -52 1 -95 0 -95 -3 0 -8 40
-43 70 -62 71 -45 112 -48 735 -47 555 0 592 -1 625 -18 29 -15 58 -54 72 -94
2 -4 30 -1 63 7 81 19 95 19 95 -4 0 -10 23 -83 50 -162 28 -79 73 -208 100
-287 52 -148 129 -411 175 -591 14 -57 28 -107 30 -112 10 -15 116 -49 155
-49 77 0 139 20 176 56 41 41 41 52 9 186 -28 118 -50 317 -65 598 -13 234
-32 402 -66 570 -39 195 -70 277 -127 338 -36 38 -52 43 -252 77 -170 29 -427
40 -558 24z"/>
<path d="M4495 4510 l-140 -5 3 -95 c2 -52 14 -183 27 -290 27 -220 45 -441
45 -548 0 -70 1 -73 28 -84 15 -6 50 -13 79 -16 61 -5 121 19 168 68 29 30 29
32 37 193 5 89 17 249 28 355 21 203 20 218 -25 410 -5 20 -11 22 -58 20 -28
-1 -115 -5 -192 -8z"/>
<path d="M11392 3767 c-71 -133 -136 -222 -186 -256 -45 -30 -64 -23 -68 26
-4 55 -34 55 -73 0 -36 -49 -85 -83 -178 -121 -69 -29 -97 -55 -97 -90 0 -18
6 -19 140 -12 201 10 311 24 332 42 9 9 33 54 53 101 37 89 103 190 114 176 4
-4 18 -53 31 -108 12 -55 27 -111 32 -125 l10 -25 10 25 c39 99 3 461 -48 477
-7 2 -39 -47 -72 -110z"/>
<path d="M12467 3667 c-18 -148 -96 -214 -187 -160 -34 20 -64 82 -58 118 3
15 2 23 -3 18 -13 -14 -30 -171 -24 -217 14 -92 77 -145 158 -132 93 15 129
74 135 221 2 55 -1 125 -5 155 l-9 55 -7 -58z"/>
<path d="M4676 3483 c-3 -3 -6 -14 -6 -24 0 -25 -48 -59 -84 -59 -17 0 -46 9
-64 20 -45 27 -76 25 -101 -6 -29 -37 -29 -109 0 -125 28 -14 369 -6 422 10
44 14 76 55 61 78 -5 9 -41 27 -79 41 -39 13 -81 32 -95 42 -40 27 -47 30 -54
23z"/>
<path d="M5900 3471 c0 -10 -16 -33 -35 -50 -30 -26 -44 -31 -85 -31 -32 0
-61 7 -82 20 -18 11 -40 20 -49 20 -23 0 -41 -49 -37 -101 3 -40 7 -46 41 -63
34 -16 66 -18 285 -20 254 -1 302 5 302 39 0 24 -33 51 -86 70 -92 33 -149 62
-197 98 -55 43 -57 43 -57 18z"/>
</g>
</svg>
